<svg xmlns="http://www.w3.org/2000/svg" viewBox="0 0 418.18 144.25"><defs><style>.cls-1{fill:#161616;}.cls-2{fill:#db4444;}</style></defs><title>otm_logo</title><g id="Layer_2" data-name="Layer 2"><g id="Layer_1-2" data-name="Layer 1"><g id="logo"><path class="cls-1" d="M190.76,46.52h36.67a0,0,0,0,1,0,0v79.4a18.33,18.33,0,0,1-18.33,18.33h0a18.33,18.33,0,0,1-18.33-18.33V46.52A0,0,0,0,1,190.76,46.52Z"/><path class="cls-1" d="M373.92,7.79,348.49,33.85,322.83,7.57A25.08,25.08,0,0,0,304.89,0H69.63A66.7,66.7,0,0,0,39.14,6.62,68.92,68.92,0,0,0,19.53,21.21Q0,41.91,0,72.28t19.53,50.88q19.92,21.09,50.1,21.09,30.38,0,50.19-20.9a70.18,70.18,0,0,0,11.66-16.46c6.2-12.23,7-23.08,7.78-34.61.14-2,.26-4.36.32-6.94a18.46,18.46,0,0,0-18.47-18.82h0a18.47,18.47,0,0,0-18.45,17.57c-.12,2.55-.26,5.22-.41,8-.24,4.33-.48,8.22-2.27,13A37.27,37.27,0,0,1,93.07,96.6q-9.67,11-23.44,11-14.74,0-23.93-10.45Q37,87.22,37,72.28a36.7,36.7,0,0,1,9.28-24.71A30.94,30.94,0,0,1,59.08,38.3a29.94,29.94,0,0,1,10.55-1.86c2.51,0,11.65,0,26.42,0v.08l13.21-.07,49.46,0v-.28c7.31,0,14.61-.06,21.92-.07q49.07-.06,98.15.23l58,55.06a16.9,16.9,0,0,0,23.3,0L381.52,71v54.89a18.32,18.32,0,0,0,18.33,18.33h0a18.33,18.33,0,0,0,18.33-18.33V25.81A25.8,25.8,0,0,0,392.38,0h0A25.82,25.82,0,0,0,373.92,7.79Z"/><circle class="cls-2" cx="121.23" cy="63.02" r="5.17"/><circle class="cls-2" cx="399.85" cy="127.67" r="5.17"/></g></g></g></svg>