<svg xmlns="http://www.w3.org/2000/svg" viewBox="0 0 303.53 303.53"><defs><style>.cls-1{fill:#161616;}.cls-2{fill:#fff;}.cls-3{fill:#db4444;}</style></defs><title>otm_logowblock</title><g id="Layer_2" data-name="Layer 2"><g id="Layer_1-2" data-name="Layer 1"><g id="logo_w_block" data-name="logo w block"><rect class="cls-1" width="303.53" height="303.53" rx="38.78" ry="38.78"/><g id="logo"><path class="cls-2" d="M140.79,136.43h22a0,0,0,0,1,0,0V184a11,11,0,0,1-11,11h0a11,11,0,0,1-11-11V136.43A0,0,0,0,1,140.79,136.43Z"/><path class="cls-2" d="M250.46,113.24l-15.23,15.61-15.36-15.74a15,15,0,0,0-10.74-4.52H68.26a39.87,39.87,0,0,0-18.26,4,41.54,41.54,0,0,0-11.74,8.73q-11.68,12.4-11.69,30.59t11.69,30.46Q50.2,195,68.26,195t30.06-12.51a42.28,42.28,0,0,0,7-9.86c3.72-7.32,4.17-13.82,4.66-20.72.09-1.23.16-2.62.19-4.16a11.05,11.05,0,0,0-11.06-11.27h0A11.06,11.06,0,0,0,88,147c-.08,1.53-.16,3.13-.25,4.79a24,24,0,0,1-1.36,7.8,22,22,0,0,1-4.14,6.88,18,18,0,0,1-14,6.6,18.14,18.14,0,0,1-14.32-6.25,23.18,23.18,0,0,1,.35-29.71,18.43,18.43,0,0,1,7.65-5.55,17.83,17.83,0,0,1,6.32-1.11c1.51,0,7,0,15.82,0v0l7.91,0,29.61,0v-.17l13.13,0q29.39,0,58.76.14l34.75,33a10.11,10.11,0,0,0,13.95,0L255,151.11V184a11,11,0,0,0,11,11h0a11,11,0,0,0,11-11V124a15.45,15.45,0,0,0-15.45-15.44h0A15.45,15.45,0,0,0,250.46,113.24Z"/><circle class="cls-3" cx="99.16" cy="146.31" r="3.09"/><circle class="cls-3" cx="265.98" cy="185.02" r="3.09"/></g></g></g></g></svg>